<svg width="50" height="58" viewBox="0 0 50 58" fill="none" xmlns="http://www.w3.org/2000/svg">
<path d="M37.6136 47.0615C42.252 47.9339 44.1629 47.0051 46.6002 43.3502L34.3171 37.5696C31.6383 39.1106 29.9445 39.4601 25.8212 37.1289C22.4756 34.9458 20.3677 33.7689 17.8024 30.9262C13.963 26.6715 13.0442 24.8808 14.573 21.1845L6.37062 10.5157C2.29657 14.9567 2.88606 18.9988 4.80493 22.3224C17.7736 39.1726 24.0281 43.692 37.6136 47.0615Z" fill="#FF494D" stroke="black" stroke-width="2"/>
<path d="M15.8624 16.2197C15.483 18.1921 15.177 19.2728 14.573 21.1846L6.37059 10.5158C7.77186 9.33302 8.63295 8.97973 10.2899 8.88601C12.8304 11.6426 14.0091 13.2605 15.8624 16.2197Z" fill="#FF494D"/>
<path d="M34.317 37.5697L46.6002 43.3502C47.4372 41.6702 47.4914 40.7585 46.8716 39.1841C44.0448 37.3428 42.3261 36.432 38.8989 35.1353C37.0244 35.9403 36.0334 36.4941 34.317 37.5697Z" fill="#FF494D"/>
<path d="M15.8624 16.2197C15.483 18.1921 15.177 19.2728 14.573 21.1846L6.37059 10.5158C7.77186 9.33302 8.63295 8.97973 10.2899 8.88601C12.8304 11.6426 14.0091 13.2605 15.8624 16.2197Z" stroke="black" stroke-width="2"/>
<path d="M34.317 37.5697L46.6002 43.3502C47.4372 41.6702 47.4914 40.7585 46.8716 39.1841C44.0448 37.3428 42.3261 36.432 38.8989 35.1353C37.0244 35.9403 36.0334 36.4941 34.317 37.5697Z" stroke="black" stroke-width="2"/>
</svg>
