<svg width="80" height="80" viewBox="0 0 80 80" fill="none" xmlns="http://www.w3.org/2000/svg">
<circle cx="40" cy="40" r="40" fill="#FF494D"/>
<path d="M33.5 35.7812H38.125C40.4583 35.7604 42.3021 35.1562 43.6562 33.9688C45.0312 32.7812 45.7188 31.0625 45.7188 28.8125C45.7188 26.6458 45.1458 24.9688 44 23.7812C42.875 22.5729 41.1458 21.9688 38.8125 21.9688C36.7708 21.9688 35.0938 22.5625 33.7812 23.75C32.4688 24.9167 31.8125 26.4479 31.8125 28.3438H24.2188C24.2188 26.0104 24.8333 23.8854 26.0625 21.9688C27.3125 20.0521 29.0417 18.5625 31.25 17.5C33.4792 16.4167 35.9688 15.875 38.7188 15.875C43.2604 15.875 46.8229 17.0208 49.4062 19.3125C52.0104 21.5833 53.3125 24.75 53.3125 28.8125C53.3125 30.8542 52.6562 32.7812 51.3438 34.5938C50.0521 36.3854 48.375 37.7396 46.3125 38.6562C48.8125 39.5104 50.7083 40.8542 52 42.6875C53.3125 44.5208 53.9688 46.7083 53.9688 49.25C53.9688 53.3333 52.5625 56.5833 49.75 59C46.9583 61.4167 43.2812 62.625 38.7188 62.625C34.3438 62.625 30.7604 61.4583 27.9688 59.125C25.1771 56.7917 23.7812 53.6875 23.7812 49.8125H31.375C31.375 51.8125 32.0417 53.4375 33.375 54.6875C34.7292 55.9375 36.5417 56.5625 38.8125 56.5625C41.1667 56.5625 43.0208 55.9375 44.375 54.6875C45.7292 53.4375 46.4062 51.625 46.4062 49.25C46.4062 46.8542 45.6979 45.0104 44.2812 43.7188C42.8646 42.4271 40.7604 41.7812 37.9688 41.7812H33.5V35.7812Z" fill="#FFECC9"/>
</svg>
