<svg width="80" height="80" viewBox="0 0 80 80" fill="none" xmlns="http://www.w3.org/2000/svg">
<circle cx="40" cy="40" r="40" fill="#FF494D"/>
<path d="M55.3125 62H24.7188V56.7812L39.875 40.25C42.0625 37.8125 43.6146 35.7812 44.5312 34.1562C45.4688 32.5104 45.9375 30.8646 45.9375 29.2188C45.9375 27.0521 45.3229 25.3021 44.0938 23.9688C42.8854 22.6354 41.25 21.9688 39.1875 21.9688C36.7292 21.9688 34.8229 22.7188 33.4688 24.2188C32.1146 25.7188 31.4375 27.7708 31.4375 30.375H23.8438C23.8438 27.6042 24.4688 25.1146 25.7188 22.9062C26.9896 20.6771 28.7917 18.9479 31.125 17.7188C33.4792 16.4896 36.1875 15.875 39.25 15.875C43.6667 15.875 47.1458 16.9896 49.6875 19.2188C52.25 21.4271 53.5312 24.4896 53.5312 28.4062C53.5312 30.6771 52.8854 33.0625 51.5938 35.5625C50.3229 38.0417 48.2292 40.8646 45.3125 44.0312L34.1875 55.9375H55.3125V62Z" fill="#FFECC9"/>
</svg>
